<?xml version="1.0" encoding="UTF-8"?>
<svg id="Layer_1" xmlns="http://www.w3.org/2000/svg" viewBox="0 0 372.61 184.54">
  <defs>
    <style>
      .cls-1 {
        fill: #231f20;
      }
    </style>
  </defs>
  <path class="cls-1" d="M342.08,184.54H8.12c-5.97,0-7.52-3.57-7.91-5.1-1.3-5.11,3.61-8.15,6.25-9.78,2.51-1.55,5.89-3.39,9.8-5.51,6.31-3.43,13.46-7.32,19.33-11.28,8-5.41,9.13-8.02,9.26-8.42V30.03C44.85,13.47,58.55,0,75.38,0h266.69c16.83,0,30.53,13.47,30.53,30.03v124.47c0,16.56-13.7,30.03-30.53,30.03ZM25.93,172.54h316.15c10.22,0,18.53-8.09,18.53-18.03V30.03c0-9.94-8.31-18.03-18.53-18.03H75.38c-10.22,0-18.53,8.09-18.53,18.03v114.54c0,9.69-12.62,17.88-30.93,27.97ZM44.87,144.39s0,0,0,0h0Z"/>
  <g>
    <path d="M81.7,29.63h12.93l10.82,28.41,10.82-28.41h12.93v42.31h-9.73v-27.98l-10.21,27.98h-7.62l-10.21-27.98v27.98h-9.73V29.63Z"/>
    <path d="M151.08,39.55c10.27,0,15.71,7.25,15.71,16.8v1.93h-22.24c.3,3.87,2.78,6.71,6.83,6.71,3.38,0,5.2-1.51,6.04-3.38h9.13c-1.39,6.47-7.37,11.06-15.05,11.06-10.52,0-16.68-7.07-16.68-16.56s6.53-16.56,16.26-16.56ZM157.18,51.94c-.48-3.2-2.78-5.38-6.1-5.38s-5.62,2.24-6.35,5.38h12.45Z"/>
    <path d="M170.06,61.61h9.25c.48,2.54,2.36,4.17,5.68,4.17,2.96,0,4.83-1.15,4.83-3.02,0-1.33-.85-2.18-3.14-2.54l-7.19-1.21c-6.04-1.03-8.95-3.75-8.95-9.13,0-6.04,5.44-10.34,13.66-10.34s13.24,3.81,13.78,10.4h-9.07c-.36-2.06-1.81-3.51-4.71-3.51-2.66,0-4.47.97-4.47,2.66,0,1.21.85,1.75,2.78,2.05l7.13,1.09c6.41.97,9.43,4.05,9.43,9.37,0,6.89-6.17,11.06-14.08,11.06-8.4,0-14.14-4.05-14.93-11.06Z"/>
    <path d="M201.97,61.61h9.25c.48,2.54,2.36,4.17,5.68,4.17,2.96,0,4.83-1.15,4.83-3.02,0-1.33-.85-2.18-3.14-2.54l-7.19-1.21c-6.04-1.03-8.95-3.75-8.95-9.13,0-6.04,5.44-10.34,13.66-10.34s13.24,3.81,13.78,10.4h-9.07c-.36-2.06-1.81-3.51-4.71-3.51-2.66,0-4.47.97-4.47,2.66,0,1.21.85,1.75,2.78,2.05l7.13,1.09c6.41.97,9.43,4.05,9.43,9.37,0,6.89-6.17,11.06-14.08,11.06-8.4,0-14.14-4.05-14.93-11.06Z"/>
    <path d="M248.33,52.66l6.41-.54v-1.33c0-2.24-1.39-3.81-4.29-3.81s-4.47,1.51-4.71,3.51h-9.61c.97-6.59,6.41-10.94,14.38-10.94,9.19,0,14.38,4.77,14.38,12.21v20.19h-9.85v-4.23c-1.21,2.78-4.65,4.96-9.13,4.96-6.59,0-10.82-3.87-10.82-9.91,0-6.41,4.29-9.37,13.24-10.09ZM249.11,65.9c3.57,0,5.62-2.06,5.62-5.68v-1.75l-4.77.48c-2.9.3-5.02,1.03-5.02,3.45,0,2.18,1.63,3.51,4.17,3.51Z"/>
    <path d="M283.62,39.55c4.41,0,7.62,2.12,8.88,5.08v-4.35h9.97v29.74c0,9.07-6.41,13.78-15.9,13.78s-15.23-3.99-16.38-11.06h10.33c.42,2.12,2.48,3.57,5.56,3.57,4.53,0,6.23-2.36,6.23-7.31v-3.75c-.91,2.84-4.35,5.26-8.7,5.26-8.22,0-14.02-6.29-14.02-15.47s5.8-15.47,14.02-15.47ZM285.98,62.7c3.63,0,6.35-3.02,6.35-7.68s-2.72-7.68-6.35-7.68c-4.05,0-6.47,3.14-6.47,7.68s2.42,7.68,6.47,7.68Z"/>
    <path d="M323.75,39.55c10.28,0,15.71,7.25,15.71,16.8v1.93h-22.24c.3,3.87,2.78,6.71,6.83,6.71,3.38,0,5.2-1.51,6.04-3.38h9.13c-1.39,6.47-7.37,11.06-15.05,11.06-10.52,0-16.68-7.07-16.68-16.56s6.53-16.56,16.26-16.56ZM329.86,51.94c-.48-3.2-2.78-5.38-6.1-5.38s-5.62,2.24-6.35,5.38h12.45Z"/>
    <path d="M81.7,102.16h20.37c8.1,0,12.99,4.35,12.99,10.94,0,4.59-2.12,7.74-6.47,9.37,5.2,1.15,8.1,5.02,8.1,10.09,0,7.43-5.74,11.91-15.11,11.91h-19.88v-42.31ZM99.95,118.66c2.84,0,4.77-1.51,4.77-4.11,0-2.36-1.75-3.93-4.96-3.93h-7.92v8.04h8.1ZM100.98,136.01c3.2,0,5.44-1.57,5.44-4.47,0-2.72-1.99-4.41-5.62-4.41h-8.95v8.88h9.13Z"/>
    <path d="M119.95,128.63c0-9.31,6.83-16.56,16.8-16.56s16.8,7.25,16.8,16.56-6.83,16.56-16.8,16.56-16.8-7.25-16.8-16.56ZM143.53,128.63c0-4.05-2.3-8.22-6.77-8.22s-6.77,4.17-6.77,8.22,2.3,8.22,6.77,8.22,6.77-4.17,6.77-8.22Z"/>
    <path d="M171.15,125.19l6.41-.54v-1.33c0-2.24-1.39-3.81-4.29-3.81s-4.47,1.51-4.71,3.51h-9.61c.97-6.59,6.41-10.94,14.38-10.94,9.19,0,14.39,4.77,14.39,12.21v20.19h-9.85v-4.23c-1.21,2.78-4.65,4.96-9.13,4.96-6.59,0-10.82-3.87-10.82-9.91,0-6.41,4.29-9.37,13.24-10.09ZM171.93,138.43c3.57,0,5.62-2.06,5.62-5.68v-1.75l-4.77.48c-2.9.3-5.02,1.03-5.02,3.45,0,2.18,1.63,3.51,4.17,3.51Z"/>
    <path d="M194.05,112.8h9.73v6.89c.79-4.23,3.44-7.25,8.1-7.25.91,0,1.75.06,2.36.24v9.91c-.6-.06-1.21-.06-1.93-.06-5.5,0-8.1,2.9-8.1,8.52v13.42h-10.15v-31.67Z"/>
    <path d="M240.47,144.47v-4.29c-1.57,2.96-4.53,5.02-9.25,5.02-8.52,0-14.51-7.25-14.51-16.56s5.92-16.56,14.45-16.56c4.65,0,7.49,2.06,9.01,5.02v-16.74h10.15v44.12h-9.85ZM233.58,120.48c-4.23,0-6.71,3.99-6.71,8.16s2.48,8.16,6.71,8.16,6.59-3.38,6.59-8.16-2.48-8.16-6.59-8.16Z"/>
  </g>
</svg>