<?xml version="1.0" encoding="UTF-8"?>
<svg id="Layer_2" xmlns="http://www.w3.org/2000/svg" viewBox="0 0 391.76 391.76">
  <g id="Layer_1-2" data-name="Layer_1">
    <g>
      <path d="M195.88,0C87.87,0,0,87.87,0,195.88c0,58.22,25.54,110.58,65.99,146.49,0,0,0-.01.01-.02,7.72,6.85,15.98,13.11,24.72,18.7,3.12-5.92,6.74-11.54,10.78-16.81,0,0,.01,0,.02.01,22.2-28.91,57.44-47.31,96.21-46.7,4.06.34,9.5.11,14.95.91,32.38,4.75,59.81,21.04,78.33,45.3,0,0,.01,0,.02-.01,4.01,5.25,7.58,10.89,10.71,16.85,8.78-5.66,17.07-12.01,24.82-18.96,0,0,0,.01.01.02,39.99-35.89,65.19-87.94,65.19-145.77C391.76,87.87,303.89,0,195.88,0ZM195.42,266.16c-40.83-.33-73.99-34.39-73.27-74.56.02-43.55,36.55-75.19,76.46-74.1,35.79.98,72.48,29.57,72.09,74.7-.37,43.84-34.94,74.29-75.28,73.96ZM315.34,324.83s0-.01-.01-.02c0,0-.01,0-.02.01-13.81-17.75-31.9-32.26-54.22-43.56-5.13-2.6-5.13-2.33-.58-6.04,31.2-25.49,45.37-58.17,40-98.31-7.7-57.48-61.82-97.75-119.25-89.37-47.96,7-86.15,46.88-89.77,94.94-2.86,37.88,11.12,68.92,40.84,92.73,4.51,3.62,4.57,3.61-.64,6.13-21.93,10.61-40.07,25.38-54.47,44.2,0,0-.01,0-.02-.01,0,0,0,.01-.01.02-35.13-32.18-57.19-78.4-57.19-129.67C20,98.9,98.9,20,195.88,20s175.88,78.9,175.88,175.88c0,50.9-21.74,96.81-56.41,128.95Z"/>
      <path d="M101.52,344.24c-4.05,5.28-7.67,10.9-10.8,16.83,30.4,19.42,66.49,30.69,105.16,30.69s75.32-11.44,105.86-31.14c-3.13-5.97-6.71-11.61-10.73-16.87-27.44,17.72-60.11,28.01-95.13,28.01s-67.07-10.1-94.36-27.51Z"/>
    </g>
  </g>
</svg>